<?xml version="1.0" encoding="UTF-8"?>
<svg width="132px" height="18px" viewBox="0 0 132 18" version="1.1" xmlns="http://www.w3.org/2000/svg" xmlns:xlink="http://www.w3.org/1999/xlink">
    <title>132</title>
    <g id="Golden-Club" stroke="none" stroke-width="1" fill="none" fill-rule="evenodd">
        <g id="Logo" fill="#FFFFFF">
            <path d="M87.4962247,11.5729451 L97.3733911,11.5729451 L96.4511256,17.3445423 L74.3167525,17.3445423 L74.8820121,13.6852307 C74.465503,14.2405761 73.9299993,14.7661631 73.275485,15.2620072 C72.6209707,15.7380176 71.8177152,16.1545205 70.8656944,16.5115283 C69.9136736,16.8685361 68.7930826,17.1561214 67.5038877,17.3742928 C66.2146929,17.5726305 64.7172659,17.6717978 63.011562,17.6717978 L61.8810429,17.6717978 C59.9373338,17.6717978 58.2812391,17.5329636 56.9127092,17.2552908 C55.5441793,16.9776181 54.3987965,16.5958238 53.4765263,16.1098965 C52.5542561,15.6239692 51.8253761,15.0636737 51.2898644,14.4289932 C50.7741865,13.8141464 50.3973506,13.1596419 50.1593454,12.4654601 C50.1593454,12.6042965 50.154387,12.7480891 50.1444701,12.8968424 C50.1345533,13.0455956 50.1196782,13.199305 50.0998444,13.3579751 L49.9808424,13.9529852 L49.4453334,17.3445423 L40.8771889,17.3445423 L40.996191,16.7495323 L40.996191,16.6900313 L41.1449435,15.7975163 L41.3234465,14.6669972 C41.4622828,13.8141452 41.3184902,13.1398073 40.8920642,12.6439631 C40.4656382,12.1481189 39.6673411,11.9002006 38.4971488,11.9002006 L33.8263201,11.9002006 L32.9635556,17.3445423 L24.4846627,17.3445423 L25.7341837,9.34165744 C25.198672,10.3333458 24.321041,11.1415597 23.1012644,11.7663233 C21.8814877,12.391087 20.1510175,12.7034641 17.9098019,12.7034641 L9.22265544,12.7034641 L8.4788929,17.3445423 L0,17.3445423 L2.70729563,0.327255516 L18.8320674,0.327255516 C21.4897921,0.327255516 23.3838885,0.74375837 24.5144132,1.57677658 C25.6449379,2.40979478 26.2994424,3.44113518 26.4779463,4.67082872 L27.1622078,0.327255516 L45.4885167,0.327255516 C47.1545531,0.327255516 48.5428959,0.619799187 49.6535869,1.20489531 C50.7642778,1.78999143 51.3493651,2.77670652 51.4088664,4.1650702 C51.8253756,3.58989096 52.3608792,3.04447056 53.0153935,2.52879262 C53.6699078,2.03294845 54.4830801,1.59661213 55.4549346,1.21977056 C56.4267892,0.842928989 57.5672137,0.54542695 58.8762423,0.327255516 C60.1852709,0.109084081 61.712448,0 63.4578195,0 L64.5883386,0 C66.5518815,0 68.2178929,0.138834285 69.5864228,0.41650702 C70.9549527,0.694179755 72.1003356,1.06109894 73.0226057,1.51727557 C73.9448759,1.97345221 74.6638391,2.50895588 75.1795171,3.12380265 C75.7150288,3.71881565 76.1017814,4.34356993 76.3397866,4.99808424 L77.0537987,0.327255516 L99.0691697,0.327255516 L98.4146587,4.46257521 L87.4962247,11.5729451 Z M16.0057698,7.55662736 C16.6404503,7.55662736 17.081745,7.43762654 17.3296671,7.19962134 C17.5775892,6.96161614 17.7015483,6.6641141 17.7015483,6.3071063 C17.7015483,5.98976603 17.602381,5.74680603 17.4040433,5.57821902 C17.2057057,5.409632 16.8487032,5.32533975 16.3330253,5.32533975 L10.382925,5.32533975 L10.025919,7.55662736 L16.0057698,7.55662736 Z M40.8474384,7.14012034 C41.5019527,7.14012034 41.9382891,7.00624442 42.1564605,6.73848857 C42.3746319,6.47073272 42.483716,6.19802252 42.483716,5.92034978 C42.483716,5.64267705 42.3795903,5.41459215 42.1713358,5.23608825 C41.9630812,5.05758435 41.5912037,4.96833374 41.055692,4.96833374 L34.9270887,4.96833374 L34.5700826,7.14012034 L40.8474384,7.14012034 Z M46.8570397,8.89539992 C47.5512216,9.09373759 48.1561424,9.3813229 48.6718203,9.75816446 C49.1874983,10.135006 49.5742509,10.5911758 49.8320899,11.1266875 C49.7924223,10.9283499 49.7676305,10.7300152 49.7577136,10.5316775 C49.7477967,10.3333398 49.7428384,10.1350051 49.7428384,9.93666747 C49.7428384,9.67882851 49.7527551,9.39620157 49.7725889,9.08877818 C49.7924226,8.7813548 49.8221728,8.46897766 49.8618404,8.15163739 C49.8816741,8.05246855 49.9015076,7.94834284 49.9213414,7.83925712 C49.9411751,7.73017141 49.9610086,7.61612896 49.9808424,7.49712636 C49.5643333,7.87396793 49.0784133,8.1813867 48.5230678,8.4193919 C47.9677223,8.6573971 47.4123852,8.81606486 46.8570397,8.89539992 Z M67.9203947,9.10365343 C67.9402285,8.96481707 67.960062,8.82102441 67.9798957,8.67227116 C67.9997295,8.52351791 68.0096462,8.38964199 68.0096462,8.27063939 C68.0096462,7.55662379 67.6873524,6.9021193 67.0427549,6.3071063 C66.3981575,5.7120933 65.2329412,5.41459126 63.547071,5.41459126 C61.7421983,5.41459126 60.4926897,5.73688513 59.7985078,6.38148255 C59.104326,7.02607997 58.6878232,7.7053763 58.5489868,8.4193919 C58.529153,8.5383945 58.5142779,8.67227042 58.504361,8.82102367 C58.4944442,8.96977692 58.4894858,9.11356957 58.4894858,9.25240594 C58.4894858,9.96642154 58.8117797,10.6407595 59.4563771,11.27544 C60.1009745,11.9101206 61.2562741,12.2274561 62.9223105,12.2274561 C64.7073495,12.2274561 65.9568581,11.8952455 66.6708737,11.2308143 C67.3848893,10.5663831 67.8013921,9.85733657 67.9203947,9.10365343 Z M75.4175211,12.9414681 L86.0384501,5.86084878 L76.5777906,5.86084878 C76.6571257,6.15835528 76.7067094,6.45585732 76.7265432,6.75336382 C76.7463769,7.05087032 76.7562937,7.33845563 76.7562937,7.61612836 C76.7562937,7.8938011 76.7414186,8.20121987 76.7116679,8.53839391 C76.6819173,8.87556794 76.6472087,9.19290345 76.6075411,9.49040995 C76.5083723,10.0457554 76.369538,10.6159677 76.1910341,11.2010638 C76.0125302,11.7861599 75.7546951,12.3662889 75.4175211,12.9414681 Z M119.83502,4.1353197 C118.823498,4.1353197 118.144201,4.20473684 117.79711,4.34357321 C117.450019,4.48240957 117.276477,4.71049447 117.276477,5.02783474 C117.276477,5.32534124 117.474811,5.55838451 117.871487,5.72697152 C118.268162,5.89555854 119.121001,6.00960099 120.43003,6.06910229 L123.196826,6.2178548 C126.310728,6.35669116 128.477534,6.80294422 129.697311,7.55662736 C130.917088,8.3103105 131.526967,9.46065172 131.526967,11.0076855 C131.526967,11.225857 131.522008,11.4390668 131.512092,11.6473213 C131.502175,11.8555759 131.4873,12.0390354 131.467466,12.1977056 C131.348463,12.9513887 131.100545,13.6653936 130.723703,14.3397417 C130.346862,15.0140898 129.712191,15.5991771 128.819671,16.0950213 C127.927152,16.5908654 126.727227,16.9776181 125.21986,17.2552908 C123.712494,17.5329636 121.788648,17.6717978 119.448263,17.6717978 L116.532714,17.6717978 C114.767509,17.6717978 113.279999,17.5627138 112.070139,17.3445423 C110.840445,17.1263709 109.833897,16.8387856 109.050463,16.4817778 C108.267029,16.12477 107.667067,15.7082671 107.250558,15.2322567 C106.834049,14.7760801 106.536546,14.3099936 106.358043,13.8339832 L105.822534,17.3445423 L97.3436406,17.3445423 L100.021186,0.327255516 L108.500079,0.327255516 L108.024071,3.33205616 C108.321577,2.77671069 108.747997,2.29079069 109.303342,1.87428159 C109.838854,1.45777249 110.5479,1.11564514 111.430503,0.84788929 C112.313106,0.580133439 113.369238,0.376840379 114.598931,0.238004011 C115.828625,0.0991676439 117.276468,0.0297505014 118.942505,0.0297505014 L121.768802,0.0297505014 C124.208356,0.0297505014 126.122285,0.208251725 127.510649,0.565259527 C128.899013,0.922267329 129.935312,1.36852039 130.619576,1.90403209 C131.303841,2.43954379 131.715386,3.03454787 131.854222,3.68906218 C131.993059,4.32374271 132.032726,4.92866353 131.973224,5.50384276 L122.21506,5.50384276 C122.21506,5.18650249 122.091101,4.87908372 121.843179,4.58157722 C121.595256,4.28407072 120.925877,4.1353197 119.83502,4.1353197 Z M118.07974,10.918434 L115.283193,10.7696815 C112.446964,10.5911776 110.488409,10.0804658 109.407469,9.23753069 C108.326529,8.3945956 107.716649,7.39796377 107.577813,6.2476053 L106.744799,11.5729451 L116.086457,11.5729451 C116.086457,11.9299529 116.200499,12.3216639 116.428587,12.7480899 C116.656676,13.1745158 117.365722,13.3877256 118.555748,13.3877256 C119.666439,13.3877256 120.385402,13.2538497 120.712659,12.9860939 C121.039917,12.718338 121.203543,12.4456278 121.203543,12.1679551 C121.203543,11.8506148 121.03,11.582863 120.682909,11.3646915 C120.335818,11.1465201 119.468104,10.9977691 118.07974,10.918434 Z"></path>
        </g>
    </g>
</svg>